Patient4_TMGait_0pt8_01_left_47_EMG.mot
version=1
nRows=17
nColumns=33
inDegrees=no
endheader
time	1LAddLong	2LGlutMax	3LGlutMed	4LIliopsoas	5LSemiMemb	6LBicFemLong	7LRecFem	8LVastMed	9LVastLat	10LGasMed	11LTibAnt	12lTibPost	13LPeroneusLong	14LSol	15LExtDigLong	16LFlexDigLong	17RAddLong	18RGlutMax	19RGlutMed	20RIliopsoas	21RSemiMemb	22RBicFemLong	23RRecFem	24RVastMed	25RVastLat	26RGasMed	27RTibAnt	28RTibPost	29RPeroneusLong	30RSol	31RExtDigLong	32RFlexDigLong
52.727	-0.021362	1.6652	0.052185	0.036621	-0.1564	0.14236	0.6221	-0.005188	-0.41779	-0.13916	0.082397	-0.002441	0.027161	0.17136	0.30945	1.2231	0.13519	0.079041	-0.42679	0.072174	-0.097961	-0.13351	0.90164	-0.068207	-0.14771	-0.00473	0.42343	0.000763	-0.15213	0.023956	-0.002441	-0.018311
52.728	-0.013733	1.696	0.10391	0.029755	-0.13626	0.026245	0.61966	0.001526	-0.35645	-0.13367	-0.054474	0.010071	-0.024872	0.080414	-0.10361	-0.34012	0.14481	0.18921	-0.42343	0.098267	-0.12634	-0.1651	0.93521	-0.086823	-0.13077	0.001221	0.26977	0.003204	-0.11078	-0.046997	0.002289	-0.012207
52.729	-0.016174	1.6711	0.015106	0.02121	-0.000458	-0.10407	0.54047	0.020752	-0.37506	-0.12634	-0.096588	0.008392	-0.085754	-0.016479	-0.23285	-0.069885	0.070648	0.23666	-0.43869	0.049133	-0.12192	-0.18356	1.0033	-0.044861	-0.12497	0.002289	0.27222	0.014648	-0.055542	-0.064392	-0.001831	-0.009613
52.73	-0.015564	1.6403	-0.10117	0.022583	0.066223	-0.024719	0.49042	0.010834	-0.42297	-0.1152	-0.005798	0.018768	-0.13718	-0.089111	-0.076752	0.69214	0.075684	0.28488	-0.50736	0.019684	-0.10651	-0.20172	1.0509	-0.036163	-0.1149	0.002136	0.1831	0.001831	-0.090942	-0.028534	-0.003357	-0.010376
52.731	-0.028229	1.6191	-0.16937	0.021973	-0.045929	0.15076	0.43549	0.014343	-0.45715	-0.068665	0.081482	0.020752	-0.10346	-0.20233	-0.016174	-0.013123	0.061493	0.35385	-0.57983	-0.087891	-0.076904	-0.17288	1.0606	-0.11215	-0.10986	0.006714	-0.54901	0.001068	0.019073	-0.048523	-0.005035	-0.015259
52.732	-0.02655	1.5521	-0.14084	0.005798	-0.10925	0.168	0.3392	0.005951	-0.47409	-0.032349	0.098114	0.032959	-0.082855	-0.27557	0.097046	-0.121	0.025635	0.47165	-0.56503	-0.18219	-0.047913	-0.23712	1.1157	-0.1004	-0.085297	0.000916	-0.68756	-0.000153	0.047913	0.024872	-0.003967	-0.012207
52.733	-0.020599	1.5503	-0.007629	0.007782	-0.008545	0.15778	0.25055	0.006714	-0.53162	-0.021362	0.054016	0.024109	-0.044708	-0.34027	0.031281	0.050354	0.016937	0.52353	-0.32379	-0.32654	0.001373	-0.21942	1.1174	-0.099182	-0.066223	0.007172	-0.67169	0	0.049591	-0.014954	-0.007172	-0.014801
52.734	-0.005035	1.3997	0.17517	0.01297	0.12177	0.18112	0.11292	0.016327	-0.44022	0.005188	0.0383	0.027313	-0.005646	-0.28519	-0.000153	0.054016	0.026703	0.62424	-0.36591	-0.2948	0.019989	-0.14542	1.0379	-0.093231	-0.06073	-0.005493	-0.77209	-0.000305	0.038757	0.022278	-0.001221	-0.020599
52.735	0.001221	1.2575	0.096283	0.031281	0.10071	0.11948	0.0383	0.007935	-0.37262	0.012512	0.06073	0.056458	-0.043488	-0.19333	0.040436	0.069122	0.11063	0.69733	-0.48737	-0.27268	0.007935	-0.16083	0.8551	-0.1091	-0.04776	-0.003815	-0.55237	0.003204	-0.024872	-0.023651	-0.000916	-0.02243
52.736	0.014648	1.2561	0.091095	0.036926	0.057831	-0.25971	-0.049591	-0.005188	-0.33447	-0.007172	0.045929	0.034943	-0.060272	-0.13519	0.045471	0.028839	0.085754	0.67886	-0.57327	-0.23377	-0.02533	-0.089264	0.83344	-0.048065	-0.056458	0.000305	-0.34943	-0.000305	-0.12283	-0.159	-0.001831	-0.019836
52.737	0.035706	1.2343	0.040894	0.023193	0.031586	-0.062561	-0.083466	-0.01297	-0.32089	-0.034027	0.05661	0.045929	-0.081177	-0.097198	0.039368	0.003662	0.071259	0.70801	-0.69	-0.031738	-0.044556	0.026855	0.83023	-0.089569	-0.063477	0.00885	0.7898	0.002899	-0.16235	-0.20081	-0.002899	-0.020599
52.738	0.031281	1.1154	-0.072327	0.006256	0.023041	0.16953	-0.11871	-0.002136	-0.29816	-0.054016	0.032501	0.050659	-0.10178	-0.073395	0.049438	0.001221	-0.0177	0.75348	-0.74844	0.13611	-0.073853	0.00824	0.87112	-0.063782	-0.054321	0.012512	1.2621	0.003967	-0.078735	-0.2214	-0.002441	-0.019379
52.739	0.023346	1.0121	-0.063934	0.009613	0.005951	0.3125	-0.12787	0.000916	-0.29877	-0.06958	0.042572	0.062256	-0.11307	-0.032349	0.065002	-0.002747	-0.09552	0.74127	-1.0695	0.23071	-0.12756	-0.032654	0.87341	0.005493	-0.057526	0.016174	0.58685	0.006561	0.043182	-0.24384	-0.001526	-0.014343
52.74	0.007782	0.88455	-0.090179	0.000305	-0.1004	0.36606	-0.17502	0.011902	-0.2417	-0.097961	0.0383	0.066376	-0.1088	-0.005493	0.051727	-0.010986	-0.1445	0.70297	-1.169	0.22583	-0.16388	-0.03418	0.74799	-0.009155	-0.046234	0.016022	-0.14923	0.002747	0.11673	-0.20096	-0.003967	-0.016174
52.741	0.075226	0.84274	-0.12955	-0.002747	-0.16785	0.14069	-0.21103	0.016937	-0.13916	-0.096588	0.040894	0.068817	-0.089874	0.028534	0.061798	-0.01297	-0.16357	0.69366	-1.2352	0.24262	-0.16419	-0.015259	0.8606	0.085602	-0.057831	0.001068	-0.69672	0.001678	-0.059662	-0.094147	-0.001068	-0.022583
52.742	0.007477	0.93979	-0.019073	0.006256	-0.13046	-0.097961	-0.24033	0.019226	-0.026093	-0.082703	0.052185	0.071259	-0.046692	0.006561	0.076447	-0.028381	-0.1648	0.71152	-0.96237	0.16419	-0.16266	0.04425	1.0135	0.22492	-0.023956	-0.002899	-0.5368	0.000916	-0.00412	-0.034637	-0.001221	-0.020905
52.743	0.015106	1.0342	0.03067	0.0177	-0.063629	-0.27237	-0.23254	0.01358	0.071411	-0.052795	0.040283	0.075378	-0.030975	0.006409	0.073242	-0.041046	-0.19501	0.79071	-0.82367	0.048523	-0.085754	0.1564	1.0367	0.37827	0.005341	-0.005341	-0.047302	0.000305	-0.017548	0.066681	-0.000763	-0.023804
